<svg xmlns="http://www.w3.org/2000/svg" width="72" height="72" viewBox="0 0 72 72">
  <g id="Group_32" data-name="Group 32" transform="translate(-205 -715)">
    <g id="Rectangle_11" data-name="Rectangle 11" transform="translate(205 715)" fill="#fff" stroke="#707070" stroke-width="1" opacity="0">
      <rect width="72" height="72" stroke="none"/>
      <rect x="0.5" y="0.5" width="71" height="71" fill="none"/>
    </g>
    <g id="percent" transform="translate(212 722)">
      <g id="Group_23" data-name="Group 23" transform="translate(8.907 8.907)">
        <path id="Path_27" data-name="Path 27" d="M202.47,80.38h-1.4a.875.875,0,1,1,0-1.75h1.4a.875.875,0,1,1,0,1.75Zm-5.6,0h-1.4a.875.875,0,0,1,0-1.75h1.4a.875.875,0,0,1,0,1.75Zm-5.6,0h-1.4a.875.875,0,0,1,0-1.75h1.4a.875.875,0,0,1,0,1.75Zm-5.6,0h-1.4a.875.875,0,0,1,0-1.75h1.4a.875.875,0,0,1,0,1.75Z" transform="translate(-171.524 -78.63)" fill="#90aeff"/>
        <path id="Path_28" data-name="Path 28" d="M418.793,137.171a.875.875,0,0,1-.875-.875v-1.4a.875.875,0,0,1,1.75,0v1.4A.875.875,0,0,1,418.793,137.171Zm0-5.6a.875.875,0,0,1-.875-.875v-1.4a.875.875,0,0,1,1.75,0v1.4A.875.875,0,0,1,418.793,131.57Zm0-5.6a.875.875,0,0,1-.875-.875v-1.4a.875.875,0,0,1,1.75,0v1.4A.875.875,0,0,1,418.793,125.969Zm0-5.6a.875.875,0,0,1-.875-.875v-1.4a.875.875,0,0,1,1.75,0v1.4A.875.875,0,0,1,418.793,120.368Z" transform="translate(-379.485 -112.846)" fill="#90aeff"/>
        <path id="Path_29" data-name="Path 29" d="M79.505,236.859a.875.875,0,0,1-.875-.875v-1.4a.875.875,0,1,1,1.75,0v1.4A.875.875,0,0,1,79.505,236.859Zm0-5.6a.875.875,0,0,1-.875-.875v-1.4a.875.875,0,0,1,1.75,0v1.4A.875.875,0,0,1,79.505,231.258Zm0-5.6a.875.875,0,0,1-.875-.875v-1.4a.875.875,0,0,1,1.75,0v1.4A.875.875,0,0,1,79.505,225.657Zm0-5.6a.875.875,0,0,1-.875-.875v-1.4a.875.875,0,0,1,1.75,0v1.4A.875.875,0,0,1,79.505,220.056Z" transform="translate(-78.63 -201.242)" fill="#90aeff"/>
        <path id="Path_30" data-name="Path 30" d="M169.115,419.668h-1.4a.875.875,0,1,1,0-1.75h1.4a.875.875,0,1,1,0,1.75Zm-5.6,0h-1.4a.875.875,0,1,1,0-1.75h1.4a.875.875,0,1,1,0,1.75Zm-5.6,0h-1.4a.875.875,0,0,1,0-1.75h1.4a.875.875,0,1,1,0,1.75Zm-5.6,0h-1.4a.875.875,0,1,1,0-1.75h1.4a.875.875,0,1,1,0,1.75Z" transform="translate(-141.948 -379.485)" fill="#90aeff"/>
      </g>
      <g id="Group_24" data-name="Group 24" transform="translate(0 0)">
        <path id="Path_31" data-name="Path 31" d="M4.822,4.824a10.665,10.665,0,1,0,15.083,0A10.665,10.665,0,0,0,4.822,4.824ZM16.044,16.045a5.205,5.205,0,1,1,0-7.362A5.206,5.206,0,0,1,16.044,16.045Z" transform="translate(-1.507 -1.507)" fill="#4e7aef"/>
        <path id="Path_32" data-name="Path 32" d="M325.114,325.116a10.665,10.665,0,1,0,15.083,0A10.665,10.665,0,0,0,325.114,325.116Zm11.221,11.221a5.205,5.205,0,1,1,0-7.362A5.206,5.206,0,0,1,336.336,336.337Z" transform="translate(-285.518 -285.518)" fill="#4e7aef"/>
        <path id="Path_33" data-name="Path 33" d="M.8,57.2h0a2.73,2.73,0,0,1,0-3.86L53.336.8A2.73,2.73,0,0,1,57.2.8h0a2.73,2.73,0,0,1,0,3.86L4.66,57.2A2.73,2.73,0,0,1,.8,57.2Z" transform="translate(0 0)" fill="#4e7aef"/>
      </g>
      <g id="Group_25" data-name="Group 25" transform="translate(19.504 19.504)">
        <path id="Path_34" data-name="Path 34" d="M173.058,178.982a.875.875,0,0,1-.619-1.494l5.049-5.049a.875.875,0,1,1,1.238,1.238l-5.049,5.049A.873.873,0,0,1,173.058,178.982Z" transform="translate(-172.182 -172.183)" fill="#90aeff"/>
        <path id="Path_35" data-name="Path 35" d="M280.667,286.591a.875.875,0,0,1-.619-1.494l5.049-5.049a.875.875,0,1,1,1.238,1.238l-5.049,5.049A.874.874,0,0,1,280.667,286.591Z" transform="translate(-267.602 -267.603)" fill="#90aeff"/>
      </g>
    </g>
  </g>
</svg>
