<svg xmlns="http://www.w3.org/2000/svg" width="56" height="56" viewBox="0 0 56 56">
  <g id="Group_301" data-name="Group 301" transform="translate(-702 -343)">
    <g id="Rectangle_45" data-name="Rectangle 45" transform="translate(702 343)" fill="#494949" stroke="#707070" stroke-width="1" opacity="0">
      <rect width="56" height="56" stroke="none"/>
      <rect x="0.5" y="0.5" width="55" height="55" fill="none"/>
    </g>
    <g id="image-gallery_1_" data-name="image-gallery (1)" transform="translate(704.154 347.308)">
      <g id="Group_297" data-name="Group 297" transform="translate(0 16.351)">
        <path id="Path_290" data-name="Path 290" d="M37.878,40.734a4.329,4.329,0,0,1-1.107-.143L3.211,31.6A4.38,4.38,0,0,1,.143,26.286L4.377,10.5a1.085,1.085,0,0,1,2.1.56L2.241,26.842a2.2,2.2,0,0,0,1.541,2.667l33.546,8.983a2.161,2.161,0,0,0,2.641-1.528l1.695-6.281a1.086,1.086,0,0,1,2.1.564L42.068,37.52a4.335,4.335,0,0,1-4.191,3.214Z" transform="translate(0 -9.701)" fill="#494949"/>
      </g>
      <g id="Group_298" data-name="Group 298" transform="translate(8.285 0)">
        <path id="Path_291" data-name="Path 291" d="M43.065,36.725H8.341A4.345,4.345,0,0,1,4,32.384V6.341A4.345,4.345,0,0,1,8.341,2H43.065a4.345,4.345,0,0,1,4.341,4.341V32.384A4.345,4.345,0,0,1,43.065,36.725ZM8.341,4.17a2.174,2.174,0,0,0-2.17,2.17V32.384a2.174,2.174,0,0,0,2.17,2.17H43.065a2.174,2.174,0,0,0,2.17-2.17V6.341a2.174,2.174,0,0,0-2.17-2.17Z" transform="translate(-4 -2)" fill="#494949"/>
      </g>
      <g id="Group_299" data-name="Group 299" transform="translate(15.053 6.511)">
        <path id="Path_292" data-name="Path 292" d="M11.341,13.681a4.341,4.341,0,1,1,4.341-4.341A4.345,4.345,0,0,1,11.341,13.681Zm0-6.511a2.17,2.17,0,1,0,2.17,2.17A2.174,2.174,0,0,0,11.341,7.17Z" transform="translate(-7 -5)" fill="#494949"/>
      </g>
      <g id="Group_300" data-name="Group 300" transform="translate(8.436 11.886)">
        <path id="Path_293" data-name="Path 293" d="M5.155,27.907a1.084,1.084,0,0,1-.768-1.851l10.25-10.25a3.336,3.336,0,0,1,4.6,0l3.051,3.051L30.739,8.722A3.261,3.261,0,0,1,33.217,7.55h.024a3.253,3.253,0,0,1,2.472,1.135L47.064,21.928a1.085,1.085,0,0,1-1.647,1.413L34.066,10.1a1.074,1.074,0,0,0-.825-.378,1.152,1.152,0,0,0-.833.391L23.2,21.16a1.081,1.081,0,0,1-.786.388,1.045,1.045,0,0,1-.816-.317L17.706,17.34a1.115,1.115,0,0,0-1.534,0L5.922,27.59a1.081,1.081,0,0,1-.766.317Z" transform="translate(-4.07 -7.55)" fill="#494949"/>
      </g>
    </g>
  </g>
</svg>
