<svg xmlns="http://www.w3.org/2000/svg" width="72" height="72" viewBox="0 0 72 72">
  <g id="Group_33" data-name="Group 33" transform="translate(-0.5 -715)">
    <g id="Rectangle_13" data-name="Rectangle 13" transform="translate(0.5 715)" fill="#fff" stroke="#707070" stroke-width="1" opacity="0">
      <rect width="72" height="72" stroke="none"/>
      <rect x="0.5" y="0.5" width="71" height="71" fill="none"/>
    </g>
    <g id="tax_2_" data-name="tax (2)" transform="translate(4.785 717.865)">
      <g id="Group_20" data-name="Group 20" transform="translate(8.665 10.585)">
        <path id="Path_12" data-name="Path 12" d="M312.549,293.168h-1.6a1,1,0,1,1,0-2h1.6a1,1,0,0,1,0,2Zm-6.4,0h-1.6a1,1,0,1,1,0-2h1.6a1,1,0,0,1,0,2Zm-6.4,0h-1.6a1,1,0,1,1,0-2h1.6a1,1,0,1,1,0,2Zm13.624-3.976a1,1,0,0,1-1-1v-1.6a1,1,0,1,1,2,0v1.6A1,1,0,0,1,313.372,289.191Zm0-6.4a1,1,0,0,1-1-1v-1.6a1,1,0,1,1,2,0v1.6A1,1,0,0,1,313.372,282.791Zm0-6.4a1,1,0,0,1-1-1v-1.6a1,1,0,1,1,2,0v1.6A1,1,0,0,1,313.372,276.391Z" transform="translate(-269.273 -248.068)" fill="#90aeff"/>
        <path id="Path_13" data-name="Path 13" d="M82.781,102.878a1,1,0,0,1-1-1v-1.6a1,1,0,0,1,2,0v1.6A1,1,0,0,1,82.781,102.878Zm0-6.4a1,1,0,0,1-1-1v-1.6a1,1,0,1,1,2,0v1.6A1,1,0,0,1,82.781,96.478Zm0-6.4a1,1,0,0,1-1-1v-1.6a1,1,0,0,1,2,0v1.6A1,1,0,0,1,82.781,90.077Zm14.5-6.3h-1.6a1,1,0,0,1,0-2h1.6a1,1,0,1,1,0,2Zm-6.4,0h-1.6a1,1,0,0,1,0-2h1.6a1,1,0,1,1,0,2Zm-6.4,0h-1.6a1,1,0,1,1,0-2h1.6a1,1,0,1,1,0,2Z" transform="translate(-81.781 -81.778)" fill="#90aeff"/>
      </g>
      <path id="Path_14" data-name="Path 14" d="M157.431,334.753a9.189,9.189,0,0,0-1.824-.466l1.156-3.13-.715-.264-.316-.116-5.743-2.125-1.821,4.922-.1.27-2.325,6.288a9.1,9.1,0,1,0,11.686-5.378Zm.871,10.02a4.292,4.292,0,1,1-2.537-5.515A4.291,4.291,0,0,1,158.3,344.772Z" transform="translate(-128.308 -286.113)" fill="#4e7aef"/>
      <path id="Path_15" data-name="Path 15" d="M175.18,330.775l-5.743-2.125-1.821,4.922-.1.27,7.979-2.951Z" transform="translate(-147.755 -286.112)" fill="#315ed4"/>
      <path id="Path_16" data-name="Path 16" d="M196.391,123.459,185.6,152.643l-6.774-2.5,8.756-23.681a6.54,6.54,0,0,1,8.411-3.868A.676.676,0,0,1,196.391,123.459Z" transform="translate(-157.599 -106.367)" fill="#cedbda"/>
      <g id="Group_21" data-name="Group 21" transform="translate(21.226 15.814)">
        <path id="Path_17" data-name="Path 17" d="M182.1,247.67l-3.27,8.844,4.618,1.708,2.839-1.05,4.734-12.8Z" transform="translate(-178.825 -228.556)" fill="#afc3c3"/>
        <path id="Path_18" data-name="Path 18" d="M227.553,123.46l-5.475,14.807-1.808,4.888a21.313,21.313,0,0,1-5.651-5.545l4.124-11.151a6.54,6.54,0,0,1,8.411-3.868A.676.676,0,0,1,227.553,123.46Z" transform="translate(-209.986 -122.182)" fill="#afc3c3"/>
      </g>
      <path id="Path_19" data-name="Path 19" d="M236.876,19.523a19.352,19.352,0,0,1-18.152,19.141q-.677.041-1.369.035a19.35,19.35,0,1,1,19.521-19.177Z" transform="translate(-174.447 0)" fill="#4e7aef"/>
      <path id="Path_20" data-name="Path 20" d="M264.255,207.5a8.06,8.06,0,0,1-4.558,4.22l-2.445.9q-.677.041-1.369.035a19.294,19.294,0,0,1-13.449-5.607l19.174-7.09a2.246,2.246,0,0,1,2.888,1.329A8.067,8.067,0,0,1,264.255,207.5Z" transform="translate(-212.974 -173.957)" fill="#fff"/>
      <g id="Group_22" data-name="Group 22" transform="translate(36.073 12.27)">
        <path id="Path_21" data-name="Path 21" d="M296.528,100.785H296.5a2.994,2.994,0,0,1,.026-5.988h.027a2.994,2.994,0,0,1,2.967,3.021h0a2.994,2.994,0,0,1-2.993,2.968Zm0-3.988a.994.994,0,0,0-.009,1.988h.009a.994.994,0,0,0,.994-.985h0a.994.994,0,0,0-.985-1Z" transform="translate(-293.533 -94.796)" fill="#fff"/>
        <path id="Path_22" data-name="Path 22" d="M358.547,163.921h-.028a2.994,2.994,0,1,1,3.021-2.967l-1-.009,1,.009a2.994,2.994,0,0,1-2.993,2.967Zm0-3.988a.994.994,0,0,0-.009,1.988.976.976,0,0,0,.706-.285.994.994,0,0,0-.688-1.7Z" transform="translate(-347.525 -149.761)" fill="#fff"/>
        <path id="Path_23" data-name="Path 23" d="M309.166,120.79a1,1,0,0,1-.7-1.716l8.228-8.027a1,1,0,1,1,1.4,1.432l-8.228,8.027A1,1,0,0,1,309.166,120.79Z" transform="translate(-306.272 -108.696)" fill="#fff"/>
      </g>
      <path id="Path_24" data-name="Path 24" d="M20.776,241.636A9.1,9.1,0,1,0,27.085,258.7l11.478-4.244-2.5-6.774-3.129,1.157a9.1,9.1,0,0,0-12.153-7.2Zm1.666,4.506a4.292,4.292,0,1,1-2.537,5.514A4.292,4.292,0,0,1,22.442,246.142Z" transform="translate(-14.832 -209.867)" fill="#4e7aef"/>
      <path id="Path_25" data-name="Path 25" d="M171.8,229.567l-2.5-6.774L198.478,212a.676.676,0,0,1,.869.4h0a6.546,6.546,0,0,1-3.869,8.41Z" transform="translate(-149.3 -184.524)" fill="#e7f2ec"/>
      <path id="Path_26" data-name="Path 26" d="M208.612,305.776a1,1,0,1,1,.708-1.706l.008.008a1,1,0,0,1-.716,1.7Z" transform="translate(-182.659 -264.453)" fill="#4e7aef"/>
    </g>
  </g>
</svg>
