<svg xmlns="http://www.w3.org/2000/svg" width="100" height="100" viewBox="0 0 100 100">
  <g id="Group_124" data-name="Group 124" transform="translate(-191 0)">
    <g id="Rectangle_18" data-name="Rectangle 18" transform="translate(191 0)" fill="#fff" stroke="#707070" stroke-width="1" opacity="0">
      <rect width="100" height="100" stroke="none"/>
      <rect x="0.5" y="0.5" width="99" height="99" fill="none"/>
    </g>
    <g id="Group_104" data-name="Group 104" transform="translate(191)">
      <circle id="Ellipse_4" data-name="Ellipse 4" cx="25" cy="25" r="25" transform="translate(50 0)" fill="#d1ddfc"/>
      <circle id="Ellipse_5" data-name="Ellipse 5" cx="12" cy="12" r="12" transform="translate(0 76)" fill="#d1ddfc"/>
      <g id="Page-1" transform="translate(7.914 9.924)">
        <g id="_059---Money-Bag" data-name="059---Money-Bag">
          <path id="Shape" d="M57.351,50.045a13.052,13.052,0,0,0,2.5-7.622A1.36,1.36,0,0,0,58.554,41a1.374,1.374,0,0,0-1.423,1.293,10.411,10.411,0,0,1-1.913,6.064c-2.652,3.35-7.685,3.52-8.668,3.52a1.36,1.36,0,1,0,0,2.719c1.2,0,7.37-.219,10.8-4.55Z" transform="translate(16.248 13.382)" fill="#4e7aef"/>
          <path id="Shape-2" data-name="Shape" d="M34.719,39.314a1.36,1.36,0,1,0-2.719,0,5.438,5.438,0,0,0,5.438,5.438v1.36a1.36,1.36,0,0,0,2.719,0v-1.36a5.438,5.438,0,1,0,0-10.876V28.438a2.719,2.719,0,0,1,2.719,2.719,1.36,1.36,0,1,0,2.719,0,5.438,5.438,0,0,0-5.438-5.438V24.36a1.36,1.36,0,1,0-2.719,0v1.36a5.438,5.438,0,1,0,0,10.876v5.438A2.719,2.719,0,0,1,34.719,39.314Zm0-8.157a2.719,2.719,0,0,1,2.719-2.719v5.438A2.719,2.719,0,0,1,34.719,31.157ZM40.157,36.6a2.719,2.719,0,0,1,0,5.438Z" transform="translate(11.505 6.911)" fill="#4e7aef"/>
          <path id="Shape-3" data-name="Shape" d="M80.436,46.913c-3.35-14.236-10.8-22.484-16.176-26.792,6.745.508,8.916,3.315,8.98,3.4A1.36,1.36,0,0,0,75.491,22c-.1-.147-1.986-2.844-7.477-4.079a6.236,6.236,0,0,0,2.275-4.681,6.981,6.981,0,0,0-5.2-6.333,24.8,24.8,0,0,0,.182-2.96,2.719,2.719,0,0,0-3.781-2.5A7.767,7.767,0,0,0,59.6,2.659a3.5,3.5,0,0,1-2.542,1.06,3.509,3.509,0,0,1-2.538-1.06,6.254,6.254,0,0,0-8.486,0,3.574,3.574,0,0,1-5.082,0,7.779,7.779,0,0,0-1.887-1.213,2.719,2.719,0,0,0-3.775,2.5c0,3.383.669,9.416,4.9,13.468a37.507,37.507,0,0,0-6.2,4.719V11.877c0-3.1-4.385-5.438-10.2-5.438S13.6,8.777,13.6,11.877v13.7c-4.768.476-8.157,2.617-8.157,5.336V65.49C2.154,66.372,0,68.161,0,70.337v6.8c0,3.1,4.385,5.438,10.2,5.438,5.2,0,9.245-1.872,10.043-4.486a15.272,15.272,0,0,0,7.631,1.767c5.812,0,10.2-2.338,10.2-5.438V56.741c0-3.1-4.385-5.438-10.2-5.438a20.173,20.173,0,0,0-2.039.1V30.91c0-2.977-4.047-5.245-9.517-5.42V15.641a15.482,15.482,0,0,0,7.477,1.674,15.482,15.482,0,0,0,7.477-1.674v9.272c-.9,1-1.8,2.094-2.684,3.3a1.36,1.36,0,0,0,2.192,1.606,41.212,41.212,0,0,1,2.8-3.4c.011-.012.02-.024.031-.035a35.74,35.74,0,0,1,9.023-7.231,8.628,8.628,0,0,0,2.1.7l-3.5,3.271a1.36,1.36,0,0,0,1.857,1.988l5.438-5.072h.434v4.079a1.36,1.36,0,1,0,2.719,0V20.034h.434l5.438,5.072a1.36,1.36,0,1,0,1.857-1.988l-3.528-3.285a8.565,8.565,0,0,0,2.084-.7c3.593,1.944,15.4,9.626,19.829,28.4,1.924,8.174,1.23,14.426-2.06,18.579C71.521,71.424,64.218,71.7,62.8,71.7H43.505a1.36,1.36,0,1,0,0,2.719H62.8c2.311,0,10.2-.477,15.064-6.611,3.831-4.839,4.7-11.867,2.575-20.891ZM10.2,67.618c4.5,0,7.477,1.631,7.477,2.719s-2.981,2.719-7.477,2.719-7.477-1.631-7.477-2.719S5.7,67.618,10.2,67.618Zm0,12.236c-4.5,0-7.477-1.631-7.477-2.719V74.1A15.482,15.482,0,0,0,10.2,75.775,15.482,15.482,0,0,0,17.674,74.1v3.033C17.674,78.222,14.693,79.854,10.2,79.854Zm17.674-2.719c-4.5,0-7.477-1.631-7.477-2.719V60.506a15.482,15.482,0,0,0,7.477,1.674,15.482,15.482,0,0,0,7.477-1.674V74.415C35.348,75.5,32.367,77.134,27.871,77.134Zm7.477-20.393c0,1.088-2.981,2.719-7.477,2.719s-7.477-1.631-7.477-2.719,2.981-2.719,7.477-2.719S35.348,55.654,35.348,56.741Zm-17.674,0v9.831A15.482,15.482,0,0,0,10.2,64.9a20.173,20.173,0,0,0-2.039.1V34.675a15.482,15.482,0,0,0,7.477,1.674,15.482,15.482,0,0,0,7.477-1.674v17.22C19.828,52.777,17.674,54.566,17.674,56.741ZM23.112,30.91c0,1.088-2.981,2.719-7.477,2.719S8.157,32,8.157,30.91s2.981-2.719,7.477-2.719S23.112,29.822,23.112,30.91Zm.68-16.314c-4.5,0-7.477-1.631-7.477-2.719S19.3,9.157,23.792,9.157s7.477,1.631,7.477,2.719S28.288,14.6,23.792,14.6Zm43.777-1.36c0,2.228-2.413,4.057-5.438,4.079a7.021,7.021,0,0,1-1.5-.173A16.108,16.108,0,0,0,64.6,9.624a4.166,4.166,0,0,1,2.971,3.612ZM39.247,4.78a6.25,6.25,0,0,0,8.481,0,3.578,3.578,0,0,1,5.085,0,6.13,6.13,0,0,0,4.243,1.659A6.136,6.136,0,0,0,61.3,4.78a5.694,5.694,0,0,1,1.247-.837c0,2.525-.469,8.766-4.849,12.188A5.831,5.831,0,0,1,54.284,17.3a29.405,29.405,0,0,0,2.775-6.418,1.36,1.36,0,1,0-2.621-.729,24.941,24.941,0,0,1-3.429,7.163h-1.4a25.176,25.176,0,0,1-3.43-7.163,1.36,1.36,0,1,0-2.62.73,29.426,29.426,0,0,0,2.778,6.424,5.846,5.846,0,0,1-3.483-1.173c-4.38-3.421-4.849-9.662-4.849-12.179a5.317,5.317,0,0,1,1.241.827Z" transform="translate(0 -0.999)" fill="#4e7aef"/>
          <path id="Shape-4" data-name="Shape" d="M57.351,50.045a13.052,13.052,0,0,0,2.5-7.622A1.36,1.36,0,0,0,58.554,41a1.377,1.377,0,0,0-1.423,1.293,10.411,10.411,0,0,1-1.913,6.064c-2.652,3.35-7.685,3.52-8.668,3.52a1.36,1.36,0,1,0,0,2.719c1.2,0,7.37-.219,10.8-4.55Z" transform="translate(16.248 13.382)" fill="#4e7aef"/>
        </g>
      </g>
    </g>
  </g>
</svg>
