<svg xmlns="http://www.w3.org/2000/svg" width="7.917" height="17.042" viewBox="0 0 7.917 17.042">
  <path id="Path_114" data-name="Path 114" d="M-1278.445-430.633a.215.215,0,0,0,.215.215h3.06a.214.214,0,0,0,.214-.215v-8.373h2.219a.215.215,0,0,0,.214-.2l.213-2.523a.214.214,0,0,0-.214-.233h-2.432v-1.789a.76.76,0,0,1,.76-.76h1.71a.215.215,0,0,0,.215-.215v-2.523a.215.215,0,0,0-.215-.214h-2.889a3.07,3.07,0,0,0-3.07,3.069v2.432h-1.53a.215.215,0,0,0-.215.215v2.523a.215.215,0,0,0,.215.215h1.53Z" transform="translate(1280.19 447.46)" fill="#467deb" fill-rule="evenodd"/>
</svg>
