<svg xmlns="http://www.w3.org/2000/svg" width="100" height="100" viewBox="0 0 100 100">
  <g id="Group_105" data-name="Group 105" transform="translate(-191 -2231)">
    <g id="Rectangle_18" data-name="Rectangle 18" transform="translate(191 2231)" fill="#fff" stroke="#707070" stroke-width="1" opacity="0">
      <rect width="100" height="100" stroke="none"/>
      <rect x="0.5" y="0.5" width="99" height="99" fill="none"/>
    </g>
    <g id="Group_104" data-name="Group 104">
      <circle id="Ellipse_4" data-name="Ellipse 4" cx="25" cy="25" r="25" transform="translate(241 2231)" fill="#d1ddfc"/>
      <circle id="Ellipse_5" data-name="Ellipse 5" cx="12" cy="12" r="12" transform="translate(192 2306)" fill="#d1ddfc"/>
      <g id="Group_96" data-name="Group 96" transform="translate(-5 -2.955)">
        <g id="Group_99" data-name="Group 99" transform="translate(206 2243.955)">
          <g id="Group_98" data-name="Group 98">
            <path id="Path_64" data-name="Path 64" d="M79.98,32.587,78.3,23.208c-.005-.03-.013-.06-.02-.09l-.013-.046c-.012-.04-.026-.08-.042-.118-.006-.015-.012-.03-.019-.044a1.27,1.27,0,0,0-.067-.129l-.021-.033a1.283,1.283,0,0,0-.079-.11l-.012-.017L68.594,11.328V1.263A1.263,1.263,0,0,0,67.331,0H12.669a1.263,1.263,0,0,0-1.263,1.263V11.329L1.985,22.613l0,0,0,.006,0,.006a1.264,1.264,0,0,0-.094.13l-.012.019a1.24,1.24,0,0,0-.073.14l-.012.028a1.248,1.248,0,0,0-.052.149v0c-.01.037-.019.074-.025.112L.02,32.587A1.252,1.252,0,0,0,0,32.81a8.617,8.617,0,0,0,6,8.2V78.737A1.263,1.263,0,0,0,7.264,80h7.56a1.263,1.263,0,1,0,0-2.526h-6.3V41.411l.076,0h.815a8.606,8.606,0,0,0,7.34-4.12,8.605,8.605,0,0,0,7.339,4.12h.815a8.606,8.606,0,0,0,7.34-4.12,8.605,8.605,0,0,0,7.339,4.12h.815a8.606,8.606,0,0,0,7.34-4.12,8.605,8.605,0,0,0,7.339,4.12H55.9a8.606,8.606,0,0,0,7.34-4.12,8.605,8.605,0,0,0,7.34,4.12H71.4l.076,0V77.474H66.938V48.517a1.263,1.263,0,0,0-1.263-1.263H47.747a1.263,1.263,0,0,0-1.263,1.263V77.474H18.865a1.263,1.263,0,0,0,0,2.526H72.736A1.263,1.263,0,0,0,74,78.737V41.01a8.617,8.617,0,0,0,6-8.2A1.259,1.259,0,0,0,79.98,32.587ZM64.411,77.474H49.01V56.517h15.4Zm0-23.483H49.01V49.78h15.4ZM13.932,2.526H66.068v7.751H13.932ZM45.773,22.168H34.227L35.649,12.8h8.7ZM15.5,32.653a1.232,1.232,0,0,0-.01.158,6.083,6.083,0,0,1-6.077,6.076H8.6a6.083,6.083,0,0,1-6.075-5.969L4,24.695h12.5ZM5.648,22.168,13.466,12.8h8.29L17.15,22.168ZM30.991,32.742c0,.022,0,.045,0,.068a6.083,6.083,0,0,1-6.077,6.077H24.1a6.083,6.083,0,0,1-6.076-6l.485-3.862.544-4.329H31.425Zm.681-10.574H19.966L24.571,12.8h8.523Zm8.736,16.718h-.815a6.083,6.083,0,0,1-6.076-6.044l.1-1.933.335-6.215h12.09l.37,6.879.068,1.269A6.084,6.084,0,0,1,40.408,38.887Zm6.5-26.083h8.523l4.605,9.364H48.328Zm9,26.083h-.816a6.083,6.083,0,0,1-6.076-6.076c0-.023,0-.045,0-.068l-.434-8.048H60.949l1.03,8.191A6.083,6.083,0,0,1,55.9,38.887ZM62.85,22.168,58.244,12.8h8.29l7.818,9.364ZM71.4,38.887h-.815a6.083,6.083,0,0,1-6.076-6.076,1.266,1.266,0,0,0-.01-.158l-1-7.958H76l1.477,8.223A6.084,6.084,0,0,1,71.4,38.887Z" transform="translate(0)" fill="#4e7aef"/>
          </g>
        </g>
        <g id="Group_101" data-name="Group 101" transform="translate(219.376 2290.886)">
          <g id="Group_100" data-name="Group 100">
            <path id="Path_65" data-name="Path 65" d="M114.748,302.425H88a1.292,1.292,0,0,0-1.292,1.292v16.315A1.292,1.292,0,0,0,88,321.324h26.747a1.292,1.292,0,0,0,1.292-1.292V303.717A1.291,1.291,0,0,0,114.748,302.425ZM89.293,318.74V305.009h24.163V318.74Z" transform="translate(-86.709 -302.425)" fill="#4e7aef"/>
          </g>
        </g>
        <g id="Group_103" data-name="Group 103" transform="translate(222.306 2249.211)">
          <g id="Group_102" data-name="Group 102">
            <path id="Path_66" data-name="Path 66" d="M154.212,32.888h-45.13a1.292,1.292,0,0,0,0,2.584h45.13a1.292,1.292,0,0,0,0-2.584Z" transform="translate(-107.79 -32.888)" fill="#4e7aef"/>
          </g>
        </g>
      </g>
    </g>
  </g>
</svg>
