<svg xmlns="http://www.w3.org/2000/svg" width="100" height="100" viewBox="0 0 100 100">
  <g id="Group_105" data-name="Group 105" transform="translate(-191 -0.087)">
    <g id="Rectangle_18" data-name="Rectangle 18" transform="translate(191 0.087)" fill="#fff" stroke="#707070" stroke-width="1" opacity="0">
      <rect width="100" height="100" stroke="none"/>
      <rect x="0.5" y="0.5" width="99" height="99" fill="none"/>
    </g>
    <g id="Group_104" data-name="Group 104" transform="translate(191)">
      <circle id="Ellipse_4" data-name="Ellipse 4" cx="25" cy="25" r="25" transform="translate(50 0.087)" fill="#d1ddfc"/>
      <circle id="Ellipse_5" data-name="Ellipse 5" cx="12" cy="12" r="12" transform="translate(0 76.087)" fill="#d1ddfc"/>
      <g id="tax_6_" data-name="tax (6)" transform="translate(8.241 14.349)">
        <path id="Path_95" data-name="Path 95" d="M83.017,68.566l0,0a1.228,1.228,0,0,0-.1-.13l-7-7.53,2.632-14.946A3.676,3.676,0,0,0,75.566,41.7L53.743,37.795a3.673,3.673,0,0,0-4.249,2.98l-1.5,8.546-8.5,4.346v-16.7a4.31,4.31,0,0,1,5.763.175,1.224,1.224,0,0,0,1.635-1.821,6.452,6.452,0,0,0-6.695-1.458,4,4,0,0,1,.7-.919,4.647,4.647,0,0,1,3.492-1.118h.037a1.224,1.224,0,0,0,.036-2.448A6.969,6.969,0,0,0,39.176,31.2a6.329,6.329,0,0,0-.913,1.122A6.321,6.321,0,0,0,37.35,31.2a6.965,6.965,0,0,0-5.281-1.821,1.224,1.224,0,0,0,.073,2.448,4.646,4.646,0,0,1,3.492,1.118,4,4,0,0,1,.7.917,7.263,7.263,0,0,0-6.671,1.427,1.224,1.224,0,0,0,1.585,1.865,5.723,5.723,0,0,1,2.044-1,4.227,4.227,0,0,1,3.746.817V54.917l-7.834,4a1.234,1.234,0,0,0-.193.11,3.473,3.473,0,0,0-1.436,2.257L26.6,66.86a44.9,44.9,0,0,0-13.5,3.808V56.782a4.31,4.31,0,0,1,5.762.175,1.224,1.224,0,0,0,1.635-1.821A6.452,6.452,0,0,0,13.8,53.678a4.015,4.015,0,0,1,.691-.907,4.64,4.64,0,0,1,3.5-1.131,1.224,1.224,0,0,0,.073-2.448,6.969,6.969,0,0,0-5.281,1.821,6.317,6.317,0,0,0-.913,1.122,6.321,6.321,0,0,0-.913-1.122,6.965,6.965,0,0,0-5.281-1.821,1.224,1.224,0,0,0,.036,2.448h.037a4.645,4.645,0,0,1,3.492,1.118,4,4,0,0,1,.7.917A7.263,7.263,0,0,0,3.276,55.1a1.224,1.224,0,0,0,1.589,1.861,4.635,4.635,0,0,1,5.785-.182V71.944c-.908.518-1.787,1.068-2.63,1.657A27.255,27.255,0,0,0,.361,81.459a2.452,2.452,0,0,0,1.117,3.526,5.079,5.079,0,0,0,2.06.427,10.982,10.982,0,0,0,4.19-1.144c2.293-.97,3.664-1.458,5.159-.193,2.715,2.3,5.473,1.13,7.689.193a9.39,9.39,0,0,1,3.123-.947l-.741,4.208a15.28,15.28,0,0,0-2.938,1.014c-2.294.971-3.664,1.458-5.159.193-2.715-2.3-5.473-1.13-7.689-.193-2.293.97-3.664,1.458-5.159.193a1.224,1.224,0,0,0-1.578,1.87c2.715,2.3,5.473,1.13,7.689.193,2.293-.97,3.664-1.458,5.159-.193a5.225,5.225,0,0,0,3.482,1.336A11.044,11.044,0,0,0,20.972,90.8c.52-.22,1.027-.434,1.517-.6l-.162.918a3.5,3.5,0,0,0,2.832,4.05s49.549,8.731,49.75,8.731a3.5,3.5,0,0,0,3.436-2.889L83.6,71.178a3.477,3.477,0,0,0-.579-2.612Zm-3,.349L73.951,72.01l1.423-8.084ZM52.56,79.774a1.052,1.052,0,0,1,1.257.231L73.981,101.3,26.739,92.956ZM55.6,78.331a3.5,3.5,0,0,0-4.156-.737l-2.514,1.284-3.08-3.309,4.689-26.63c.2.012.4.02.605.02a10.37,10.37,0,0,0,9.9-7.369l6.372,1.141a10.373,10.373,0,0,0,7.355,10.541L71.223,73.4,57.545,80.383Zm20.529-32.8L75.2,50.84a7.935,7.935,0,0,1-5.356-7.674l5.3.949A1.226,1.226,0,0,1,76.13,45.533ZM53.316,40.206l5.3.949a7.923,7.923,0,0,1-7.645,5.352L51.9,41.2a1.224,1.224,0,0,1,1.414-.994ZM47.458,52.342,43.763,73.326,31.717,60.386ZM29.926,62.053l16.74,17.981L24.794,91.2Zm-10.3,19.959c-2.293.97-3.664,1.458-5.159.193-2.715-2.3-5.473-1.13-7.689-.193-1.632.69-3.041,1.286-4.331.728A24.771,24.771,0,0,1,9.42,75.61a38.467,38.467,0,0,1,16.731-6.218L24.128,80.878a10.248,10.248,0,0,0-4.5,1.133ZM76.051,99.926,59.3,82.236,81.127,71.1Z" transform="translate(-0.001 -29.037)" fill="#4e7aef"/>
        <path id="Path_96" data-name="Path 96" d="M326.951,229.29l-.709-.125c-.006-.078-.012-.157-.021-.237a4.047,4.047,0,0,0-2.645-3.34,3.535,3.535,0,0,0-3.664.6,9.069,9.069,0,0,0-1.348,1.628l-4.907-.865a3.812,3.812,0,0,1,.963-1.521,1.208,1.208,0,0,0-1.783-1.631,6,6,0,0,0-1.573,2.729l-.708-.125a1.208,1.208,0,0,0-.42,2.379l.817.144a4.883,4.883,0,0,0,3.218,4.253,4.22,4.22,0,0,0,5.248-2.1c.109-.2.222-.4.337-.6l3.757.662a3.813,3.813,0,0,1-.675,1.051,1.208,1.208,0,0,0,1.7,1.713,6.389,6.389,0,0,0,1.39-2.338l.6.106a1.208,1.208,0,1,0,.419-2.379ZM314.97,230.9a2.432,2.432,0,0,1-1.49-1.527l3.752.661A1.808,1.808,0,0,1,314.97,230.9Zm6.579-2.936a1.169,1.169,0,0,1,1.18-.108,1.729,1.729,0,0,1,.957.864l-2.45-.432A4.451,4.451,0,0,1,321.549,227.959Z" transform="translate(-258.567 -191.313)" fill="#4e7aef"/>
        <path id="Path_97" data-name="Path 97" d="M87.494,80.809a1.208,1.208,0,1,0,.884,2.248,3.487,3.487,0,0,1,1.438-.173,2.175,2.175,0,0,1,1.856,1.589,1.208,1.208,0,0,0,2.035.354,2.175,2.175,0,0,1,2.283-.869,3.491,3.491,0,0,1,1.295.649,1.208,1.208,0,0,0,1.592-1.817,5.471,5.471,0,0,0-3.7-1.3,4.328,4.328,0,0,0-2.055.675,4.327,4.327,0,0,0-1.707-1.329A5.477,5.477,0,0,0,87.494,80.809Z" transform="translate(-72.56 -71.887)" fill="#4e7aef"/>
        <path id="Path_98" data-name="Path 98" d="M34.328,32.607a1.2,1.2,0,0,0,1.7-.117,3.49,3.49,0,0,1,1.2-.815,2.176,2.176,0,0,1,2.378.558,1.208,1.208,0,0,0,1.97-.621A2.175,2.175,0,0,1,43.2,29.792a3.487,3.487,0,0,1,1.448-.019,1.208,1.208,0,0,0,.579-2.346,5.478,5.478,0,0,0-3.884.542,4.326,4.326,0,0,0-1.515,1.544,4.328,4.328,0,0,0-2.127-.4A5.478,5.478,0,0,0,34.211,30.9,1.211,1.211,0,0,0,34.328,32.607Z" transform="translate(-28.451 -27.287)" fill="#4e7aef"/>
      </g>
    </g>
  </g>
</svg>
