<svg xmlns="http://www.w3.org/2000/svg" width="17.042" height="17.042" viewBox="0 0 17.042 17.042">
  <path id="Path_115" data-name="Path 115" d="M-5588.873,257.6c-3.149.144-4.8,1.916-4.941,4.941-.1,2.29-.1,4.714,0,7,.137,3.025,1.792,4.8,4.941,4.94,2.29.1,4.713.1,7,0,3.025-.138,4.8-1.79,4.94-4.94.1-2.292.1-4.713,0-7-.142-3.084-1.857-4.8-4.94-4.941C-5584.16,257.5-5586.583,257.5-5588.873,257.6Zm9.055,3.909a1.02,1.02,0,0,1-1.02,1.02,1.019,1.019,0,0,1-1.019-1.02,1.019,1.019,0,0,1,1.019-1.019A1.019,1.019,0,0,1-5579.818,261.509Zm-5.554,7.365a2.831,2.831,0,0,1-2.831-2.831,2.831,2.831,0,0,1,2.831-2.831,2.832,2.832,0,0,1,2.832,2.831A2.832,2.832,0,0,1-5585.372,268.874Zm0-7.193a4.362,4.362,0,0,0-4.361,4.362,4.361,4.361,0,0,0,4.361,4.362,4.362,4.362,0,0,0,4.362-4.362A4.362,4.362,0,0,0-5585.372,261.682Zm3.432-2.552c2.288.1,3.377,1.194,3.481,3.482.1,2.243.1,4.621,0,6.864-.106,2.354-1.253,3.38-3.481,3.482-2.244.1-4.62.1-6.865,0-2.229-.1-3.374-1.128-3.481-3.482-.1-2.243-.1-4.622,0-6.864s1.127-3.374,3.481-3.482C-5586.56,259.027-5584.183,259.027-5581.939,259.129Z" transform="translate(5593.893 -257.522)" fill="#467deb" fill-rule="evenodd"/>
</svg>
