<svg xmlns="http://www.w3.org/2000/svg" width="100" height="100" viewBox="0 0 100 100">
  <g id="Group_105" data-name="Group 105" transform="translate(0 -2231.336)">
    <g id="Rectangle_18" data-name="Rectangle 18" transform="translate(0 2231.336)" fill="#fff" stroke="#707070" stroke-width="1" opacity="0">
      <rect width="100" height="100" stroke="none"/>
      <rect x="0.5" y="0.5" width="99" height="99" fill="none"/>
    </g>
    <g id="Group_104" data-name="Group 104" transform="translate(1 2231)">
      <circle id="Ellipse_4" data-name="Ellipse 4" cx="25" cy="25" r="25" transform="translate(49 0.336)" fill="#d1ddfc"/>
      <circle id="Ellipse_5" data-name="Ellipse 5" cx="12" cy="12" r="12" transform="translate(0 75.336)" fill="#d1ddfc"/>
      <g id="payroll" transform="translate(7.675 9.112)">
        <path id="Path_77" data-name="Path 77" d="M76.009,11.855H62.43V7.46a1.443,1.443,0,1,0-2.881,0v4.4H45.765V7.46a1.443,1.443,0,1,0-2.881,0v4.4H29.1V7.46a1.443,1.443,0,1,0-2.881,0v4.4H12.641C7.871,11.86,4.005,15.99,4,21.085V76.908c.005,5.1,3.871,9.225,8.641,9.231H76.009c4.77-.006,8.636-4.135,8.641-9.231V21.085c-.005-5.1-3.871-9.225-8.641-9.231Zm5.761,65.053a5.973,5.973,0,0,1-5.761,6.154H12.641A5.973,5.973,0,0,1,6.88,76.908V32.733H81.769Zm0-47.252H6.88V21.085a5.974,5.974,0,0,1,5.761-6.154H26.22v4.4a1.443,1.443,0,1,0,2.881,0v-4.4H42.885v4.4a1.443,1.443,0,1,0,2.881,0v-4.4H59.549v4.4a1.443,1.443,0,1,0,2.88,0v-4.4H76.009a5.974,5.974,0,0,1,5.761,6.154Z" transform="translate(-4 -5.921)" fill="#4e7aef"/>
        <path id="Path_78" data-name="Path 78" d="M34.2,51.429c-2.342,0-4.32-1.319-4.32-2.88a1.44,1.44,0,1,0-2.881,0c0,2.782,2.478,5.109,5.761,5.644v3a1.44,1.44,0,1,0,2.881,0v-3c8.489-1.537,7.085-11.322-1.44-11.4-5.693-.15-5.693-5.61,0-5.761,2.342,0,4.321,1.319,4.321,2.88a1.44,1.44,0,1,0,2.881,0c0-2.782-2.478-5.109-5.761-5.644v-3a1.44,1.44,0,1,0-2.881,0v3c-8.489,1.537-7.085,11.322,1.44,11.4,5.693.15,5.693,5.61,0,5.761Z" transform="translate(6.124 8.412)" fill="#4e7aef"/>
      </g>
    </g>
  </g>
</svg>
