<svg xmlns="http://www.w3.org/2000/svg" width="100" height="100" viewBox="0 0 100 100">
  <g id="Group_105" data-name="Group 105" transform="translate(-191 -2231)">
    <g id="Rectangle_18" data-name="Rectangle 18" transform="translate(191 2231)" fill="#fff" stroke="#707070" stroke-width="1" opacity="0">
      <rect width="100" height="100" stroke="none"/>
      <rect x="0.5" y="0.5" width="99" height="99" fill="none"/>
    </g>
    <g id="Group_104" data-name="Group 104">
      <circle id="Ellipse_4" data-name="Ellipse 4" cx="25" cy="25" r="25" transform="translate(241 2231)" fill="#d1ddfc"/>
      <circle id="Ellipse_5" data-name="Ellipse 5" cx="12" cy="12" r="12" transform="translate(192 2306)" fill="#d1ddfc"/>
      <g id="sign" transform="translate(160.649 2210.192)">
        <path id="Path_67" data-name="Path 67" d="M98.106,32H41.49A1.486,1.486,0,0,0,40,33.481v80a1.486,1.486,0,0,0,1.49,1.481H98.106a1.486,1.486,0,0,0,1.49-1.481v-80A1.486,1.486,0,0,0,98.106,32ZM82.937,34.963l-.372,2.222a4.448,4.448,0,0,1-4.408,3.7H61.438a4.449,4.449,0,0,1-4.41-3.7l-.372-2.222ZM96.616,112H42.98V34.963H53.636l.453,2.7a7.415,7.415,0,0,0,7.349,6.189h16.72a7.413,7.413,0,0,0,7.347-6.189l.454-2.7H96.616Z" transform="translate(0 0)" fill="#4e7aef"/>
        <path id="Path_68" data-name="Path 68" d="M95.287,145.489h-5.83a1.457,1.457,0,0,0,0,2.915h2.915v1.457a1.457,1.457,0,0,0,2.915,0V148.4a4.156,4.156,0,0,0,4.372-3.886v-2.43a4.156,4.156,0,0,0-4.372-3.886H92.372c-.858,0-1.457-.512-1.457-.971V134.8c0-.459.6-.971,1.457-.971H98.2a1.457,1.457,0,0,0,0-2.915H95.287v-1.457a1.457,1.457,0,0,0-2.915,0v1.457A4.156,4.156,0,0,0,88,134.8v2.43a4.156,4.156,0,0,0,4.372,3.886h2.915c.858,0,1.457.512,1.457.971v2.43C96.745,144.977,96.145,145.489,95.287,145.489Z" transform="translate(-39.255 -78.107)" fill="#4e7aef"/>
        <path id="Path_69" data-name="Path 69" d="M185.457,144a1.457,1.457,0,0,0,0,2.915h20.4a1.457,1.457,0,1,0,0-2.915Z" transform="translate(-117.151 -91.247)" fill="#4e7aef"/>
        <path id="Path_70" data-name="Path 70" d="M185.457,194.915h20.4a1.457,1.457,0,1,0,0-2.915h-20.4a1.457,1.457,0,0,0,0,2.915Z" transform="translate(-117.151 -130.353)" fill="#4e7aef"/>
        <path id="Path_71" data-name="Path 71" d="M185.457,242.915h20.4a1.457,1.457,0,1,0,0-2.915h-20.4a1.457,1.457,0,0,0,0,2.915Z" transform="translate(-117.151 -169.458)" fill="#4e7aef"/>
        <path id="Path_72" data-name="Path 72" d="M89.457,290.915h37.893a1.457,1.457,0,1,0,0-2.915H89.457a1.457,1.457,0,0,0,0,2.915Z" transform="translate(-39.255 -208.564)" fill="#4e7aef"/>
        <path id="Path_73" data-name="Path 73" d="M128.808,337.457A1.457,1.457,0,0,0,127.351,336H89.457a1.457,1.457,0,0,0,0,2.915h37.893A1.457,1.457,0,0,0,128.808,337.457Z" transform="translate(-39.255 -247.67)" fill="#4e7aef"/>
        <path id="Path_74" data-name="Path 74" d="M218.947,432H201.457a1.457,1.457,0,0,0,0,2.915h17.489a1.457,1.457,0,1,0,0-2.915Z" transform="translate(-130.202 -325.782)" fill="#4e7aef"/>
        <path id="Path_75" data-name="Path 75" d="M205,371.425c-.568-1.445-1.344-3.425-3.512-3.425-1.884,0-3.1,1.734-4.165,3.265-.67.96-1.587,2.274-2.228,2.33a2.2,2.2,0,0,1-1.321-.8c-1.6-1.6-3.279-2.27-4.984-1.993-2.88.466-4.465,3.487-4.638,3.826a1.458,1.458,0,1,0,2.609,1.3c.261-.523,1.275-2.06,2.5-2.257a3,3,0,0,1,2.454,1.179,4.629,4.629,0,0,0,3.644,1.64c2-.182,3.252-1.977,4.363-3.563.454-.65,1.4-2,1.778-2.026a5.215,5.215,0,0,1,.8,1.581c.638,1.621,1.747,4.449,5.059,4.449a7.36,7.36,0,0,0,1.782-.239,1.457,1.457,0,1,0-.707-2.828c-2.164.541-2.587-.308-3.427-2.447Z" transform="translate(-117.111 -273.441)" fill="#4e7aef"/>
        <path id="Path_76" data-name="Path 76" d="M405.117,40.889V33.481A1.47,1.47,0,0,0,403.66,32h-8.745a1.47,1.47,0,0,0-1.457,1.481v7.407A1.47,1.47,0,0,0,392,42.37V101.63a7.392,7.392,0,0,0,5.83,7.257v4.594a1.458,1.458,0,1,0,2.915,0v-4.594a7.392,7.392,0,0,0,5.83-7.257V42.37A1.47,1.47,0,0,0,405.117,40.889Zm-10.2,2.963h2.915v16.3a1.458,1.458,0,1,0,2.915,0v-16.3h2.915V97.185h-8.745Zm1.457-8.889h5.83v5.926h-5.83Zm7.287,66.667a4.373,4.373,0,1,1-8.745,0v-1.481h8.745Z" transform="translate(-286.574 0)" fill="#4e7aef"/>
      </g>
    </g>
  </g>
</svg>
