<svg xmlns="http://www.w3.org/2000/svg" width="100" height="100" viewBox="0 0 100 100">
  <g id="Group_105" data-name="Group 105" transform="translate(-191 -2231)">
    <g id="Rectangle_18" data-name="Rectangle 18" transform="translate(191 2231)" fill="#fff" stroke="#707070" stroke-width="1" opacity="0">
      <rect width="100" height="100" stroke="none"/>
      <rect x="0.5" y="0.5" width="99" height="99" fill="none"/>
    </g>
    <g id="Group_104" data-name="Group 104">
      <circle id="Ellipse_4" data-name="Ellipse 4" cx="25" cy="25" r="25" transform="translate(241 2231)" fill="#d1ddfc"/>
      <circle id="Ellipse_5" data-name="Ellipse 5" cx="12" cy="12" r="12" transform="translate(192 2306)" fill="#d1ddfc"/>
      <g id="taxes" transform="translate(202.578 2247.265)">
        <path id="Path_88" data-name="Path 88" d="M336.46,34.883a14.042,14.042,0,1,1,4.715-2.612" transform="translate(-271.364 -7.5)" fill="none" stroke="#4e7aef" stroke-linecap="round" stroke-linejoin="round" stroke-width="2.5"/>
        <circle id="Ellipse_8" data-name="Ellipse 8" cx="2.338" cy="2.338" r="2.338" transform="translate(53.775 7.014)" fill="none" stroke="#4e7aef" stroke-linecap="round" stroke-linejoin="round" stroke-width="2.5"/>
        <circle id="Ellipse_9" data-name="Ellipse 9" cx="2.338" cy="2.338" r="2.338" transform="translate(63.128 16.366)" fill="none" stroke="#4e7aef" stroke-linecap="round" stroke-linejoin="round" stroke-width="2.5"/>
        <line id="Line_8" data-name="Line 8" x1="11.69" y2="11.69" transform="translate(54.944 8.183)" fill="none" stroke="#4e7aef" stroke-linecap="round" stroke-linejoin="round" stroke-width="2.5"/>
        <path id="Path_89" data-name="Path 89" d="M372.533,370.048l-4.676,2.338,4.676,2.338" transform="translate(-313.609 -315.47)" fill="none" stroke="#4e7aef" stroke-linecap="round" stroke-linejoin="round" stroke-width="2.5"/>
        <line id="Line_9" data-name="Line 9" x1="2.338" y1="2.338" transform="translate(67.804 67.804)" fill="none" stroke="#4e7aef" stroke-linecap="round" stroke-linejoin="round" stroke-width="2.5"/>
        <line id="Line_10" data-name="Line 10" x1="3.207" y1="0.806" transform="translate(71.279 61.674)" fill="none" stroke="#4e7aef" stroke-linecap="round" stroke-linejoin="round" stroke-width="2.5"/>
        <line id="Line_11" data-name="Line 11" x1="0.806" y1="3.207" transform="translate(61.674 71.279)" fill="none" stroke="#4e7aef" stroke-linecap="round" stroke-linejoin="round" stroke-width="2.5"/>
        <path id="Path_90" data-name="Path 90" d="M471.242,191.718a37.487,37.487,0,0,0,2-33.415" transform="translate(-401.431 -135.601)" fill="none" stroke="#4e7aef" stroke-linecap="round" stroke-linejoin="round" stroke-width="2.5"/>
        <line id="Line_12" data-name="Line 12" y1="10.409" x2="18.029" transform="translate(37.409 27)" fill="none" stroke="#4e7aef" stroke-linecap="round" stroke-linejoin="round" stroke-width="2.5"/>
        <path id="Path_91" data-name="Path 91" d="M274.708,288.4A37.6,37.6,0,0,0,288.4,274.708L256,256" transform="translate(-218.591 -218.591)" fill="none" stroke="#4e7aef" stroke-linecap="round" stroke-linejoin="round" stroke-width="2.5"/>
        <path id="Path_92" data-name="Path 92" d="M59.383,92.226l4.233,7.332A37.416,37.416,0,1,1,28.175,33.689" transform="translate(-7.5 -29.747)" fill="none" stroke="#4e7aef" stroke-linecap="round" stroke-linejoin="round" stroke-width="2.5"/>
        <path id="Path_93" data-name="Path 93" d="M177.293,9.415A37.37,37.37,0,0,1,189.141,7.5V44.909l12.069,20.9" transform="translate(-151.732 -7.5)" fill="none" stroke="#4e7aef" stroke-linecap="round" stroke-linejoin="round" stroke-width="2.5"/>
        <path id="Path_94" data-name="Path 94" d="M270.7,10.5a37.287,37.287,0,0,0-14.7-3" transform="translate(-218.591 -7.5)" fill="none" stroke="#4e7aef" stroke-linecap="round" stroke-linejoin="round" stroke-width="2.5"/>
      </g>
    </g>
  </g>
</svg>
