<svg xmlns="http://www.w3.org/2000/svg" width="100" height="100" viewBox="0 0 100 100">
  <g id="Group_105" data-name="Group 105" transform="translate(0 -2231.26)">
    <g id="Group_104" data-name="Group 104" transform="translate(0 2231)">
      <circle id="Ellipse_4" data-name="Ellipse 4" cx="25" cy="25" r="25" transform="translate(50 0.26)" fill="#d1ddfc"/>
      <circle id="Ellipse_5" data-name="Ellipse 5" cx="12" cy="12" r="12" transform="translate(0 76.26)" fill="#d1ddfc"/>
      <g id="taxes_1_" data-name="taxes (1)" transform="translate(7.75 9.722)">
        <g id="Group_117" data-name="Group 117" transform="translate(0)">
          <path id="Path_99" data-name="Path 99" d="M358.325,195.778a5.894,5.894,0,0,0-4.059-6.743s-1.112-.393-1.415-.5v-7.214a4.856,4.856,0,0,1,2.041.869,1.183,1.183,0,1,0,1.432-1.884,7.352,7.352,0,0,0-3.473-1.376v-1.2a1.183,1.183,0,0,0-2.366,0v1.292a8.283,8.283,0,0,0-.82.2c-3.792,1-5.4,6.722-2.209,9.173a13.392,13.392,0,0,0,3.029,1.762v8.9A6.02,6.02,0,0,1,347,197.835a1.183,1.183,0,0,0-1.3,1.98,8.381,8.381,0,0,0,4.783,1.608V202.8a1.183,1.183,0,0,0,2.366,0v-1.462a6.729,6.729,0,0,0,5.474-5.559Zm-9.435-9.268a2.47,2.47,0,0,1-.72-2.445,3.244,3.244,0,0,1,2.177-2.58l.137-.039v6.093A11.245,11.245,0,0,1,348.891,186.51Zm7.1,8.876a4.407,4.407,0,0,1-3.14,3.528v-7.869l.626.221A3.553,3.553,0,0,1,355.992,195.385Z" transform="translate(-289.905 -148.182)" fill="#4e7aef"/>
          <path id="Path_100" data-name="Path 100" d="M119.241,132.809a1.183,1.183,0,0,0,1.527-.685l.487-1.278h3.378l.481,1.275a1.183,1.183,0,0,0,2.214-.835l-3.091-8.193-.013-.032a1.367,1.367,0,0,0-1.268-.85h0a1.367,1.367,0,0,0-1.268.853l-.01.027-3.119,8.193A1.183,1.183,0,0,0,119.241,132.809Zm4.5-4.329h-1.584l.8-2.09Z" transform="translate(-99.527 -102.66)" fill="#4e7aef"/>
          <path id="Path_101" data-name="Path 101" d="M177.5,132.671a1.184,1.184,0,0,0,1.649-.286l2.166-3.075,2.162,3.075a1.183,1.183,0,1,0,1.936-1.361l-2.65-3.769L185,124.076a1.183,1.183,0,0,0-1.935-1.363l-1.75,2.485-1.747-2.484a1.183,1.183,0,1,0-1.936,1.361l2.235,3.179-2.654,3.769A1.183,1.183,0,0,0,177.5,132.671Z" transform="translate(-148.685 -102.661)" fill="#4e7aef"/>
          <path id="Path_102" data-name="Path 102" d="M81.528,122.211H76.941a1.183,1.183,0,0,0,0,2.366h1.1V131.7a1.183,1.183,0,0,0,2.366,0v-7.126h1.12A1.183,1.183,0,0,0,81.528,122.211Z" transform="translate(-63.814 -102.661)" fill="#4e7aef"/>
          <path id="Path_103" data-name="Path 103" d="M210.273,345.215h10.814a1.183,1.183,0,0,0,0-2.366H210.273A1.183,1.183,0,0,0,210.273,345.215Z" transform="translate(-175.623 -288.075)" fill="#4e7aef"/>
          <path id="Path_104" data-name="Path 104" d="M239.315,378.472H210.273a1.183,1.183,0,0,0,0,2.366h29.042A1.183,1.183,0,0,0,239.315,378.472Z" transform="translate(-175.443 -318.006)" fill="#4e7aef"/>
          <path id="Path_105" data-name="Path 105" d="M239.315,413.607H210.273a1.183,1.183,0,0,0,0,2.366h29.042A1.183,1.183,0,0,0,239.315,413.607Z" transform="translate(-175.443 -347.36)" fill="#4e7aef"/>
          <path id="Path_106" data-name="Path 106" d="M147.323,100.215a33.05,33.05,0,0,0-23.183-9.9,1.659,1.659,0,0,0-1.68,1.659v29.037h-30.4a1.649,1.649,0,0,0-1.657,1.6c-.883,31.074,38.04,46.2,58.373,22.8a1.183,1.183,0,0,0-1.787-1.552c-18.657,21.491-54.422,8.031-54.233-20.485h30.417a1.658,1.658,0,0,0,1.656-1.657V92.7c23.075.6,37.507,27.229,25.282,46.87a1.183,1.183,0,1,0,2.026,1.223c7.81-12.615,5.8-30.138-4.812-40.573Z" transform="translate(-75.126 -75.068)" fill="#4e7aef"/>
          <path id="Path_107" data-name="Path 107" d="M43.193,39.876V1.691A1.657,1.657,0,0,0,41.519.033,42.223,42.223,0,0,0,3.959,24.14,1.183,1.183,0,1,0,6.1,25.152,39.973,39.973,0,0,1,40.826,2.414V39.166H2.414A39.627,39.627,0,0,1,4.123,30.2a1.183,1.183,0,0,0-2.258-.709A42.017,42.017,0,0,0,0,39.788a1.657,1.657,0,0,0,1.655,1.745H41.536a1.659,1.659,0,0,0,1.656-1.657Z" transform="translate(-0.001 -0.033)" fill="#4e7aef"/>
        </g>
      </g>
    </g>
  </g>
</svg>
