<svg xmlns="http://www.w3.org/2000/svg" width="72" height="72" viewBox="0 0 72 72">
  <g id="Group_36" data-name="Group 36" transform="translate(-534 -715)">
    <g id="Rectangle_12" data-name="Rectangle 12" transform="translate(534 715)" fill="#fff" stroke="#707070" stroke-width="1" opacity="0">
      <rect width="72" height="72" stroke="none"/>
      <rect x="0.5" y="0.5" width="71" height="71" fill="none"/>
    </g>
    <g id="Page-1" transform="translate(544.847 718.194)">
      <g id="_015---Tax-Money-Bag" data-name="015---Tax-Money-Bag" transform="translate(0.016 0)">
        <g id="Icons" transform="translate(1.079 1.094)">
          <path id="Shape" d="M47.59,53.27a10.882,10.882,0,0,1-10.6,8.191H11.121A10.882,10.882,0,0,1,.525,53.27C-1.914,43.275,4.56,30.383,12.28,21H35.835c7.72,9.383,14.194,22.275,11.755,32.27Z" transform="translate(-0.003 1.964)" fill="#d1ddfc"/>
          <path id="Shape-2" data-name="Shape" d="M33.051,21H29.77c7.72,9.383,14.194,22.275,11.755,32.27a10.882,10.882,0,0,1-10.6,8.191H34.21a10.882,10.882,0,0,0,10.6-8.191C47.245,43.275,40.771,30.383,33.051,21Z" transform="translate(2.782 1.964)" fill="#cad9fc"/>
          <path id="Shape-3" data-name="Shape" d="M37.559,10.509,33.108,17.5H13.425L8.974,10.509a3.281,3.281,0,0,1,2.778-5.041h2.854l-.383-.93A3.281,3.281,0,0,1,17.252,0H29.281A3.281,3.281,0,0,1,32.31,4.538l-.383.93h2.854a3.281,3.281,0,0,1,2.778,5.041Z" transform="translate(0.789 0)" fill="#d1ddfc"/>
          <path id="Shape-4" data-name="Shape" d="M29.673,5a3.281,3.281,0,0,1,2.778,5.041L28,17.029h3.281l4.451-6.988A3.281,3.281,0,0,0,32.954,5Z" transform="translate(2.616 0.468)" fill="#90aeff"/>
          <g id="Group_34" data-name="Group 34" transform="translate(8.745 5.468)">
            <path id="Shape-5" data-name="Shape" d="M30.193,5,27,12.655" transform="translate(-6.223 -5)" fill="#d1ddfc"/>
            <path id="Shape-6" data-name="Shape" d="M17.273,12.655,14.08,5" transform="translate(-7.431 -5)" fill="#d1ddfc"/>
            <path id="Shape-7" data-name="Shape" d="M38.619,18.734a2.725,2.725,0,0,1-2.734,2.734H10.734a2.734,2.734,0,1,1,0-5.468H35.885a2.734,2.734,0,0,1,2.734,2.734Z" transform="translate(-8 -3.971)" fill="#d1ddfc"/>
          </g>
          <path id="Shape-8" data-name="Shape" d="M33.781,16H30.5a2.734,2.734,0,0,1,0,5.468h3.281a2.734,2.734,0,0,0,0-5.468Z" transform="translate(2.85 1.497)" fill="#cad9fc"/>
        </g>
        <g id="Icons_copy_2" transform="translate(1.079 1.094)">
          <path id="Shape-9" data-name="Shape" d="M.525,55.234a10.882,10.882,0,0,0,10.6,8.191H14.4a10.882,10.882,0,0,1-10.6-8.191C1.367,45.239,7.84,32.347,15.561,22.964h-.8a2.734,2.734,0,1,1,0-5.468H17.5l-4.451-6.988a3.281,3.281,0,0,1,2.778-5.041h2.854l-.383-.93A3.281,3.281,0,0,1,21.324,0H18.043a3.281,3.281,0,0,0-3.029,4.538l.383.93H12.543a3.281,3.281,0,0,0-2.778,5.041L14.216,17.5H11.482a2.734,2.734,0,0,0,0,5.468h.8C4.56,32.347-1.914,45.239.525,55.234Z" transform="translate(-0.003 0)" fill="#fff"/>
        </g>
        <g id="Icons_copy">
          <path id="Shape-10" data-name="Shape" d="M.392,43.4l2.159.358a20.969,20.969,0,0,0,.128,8.25l-2.125.518A23.164,23.164,0,0,1,.392,43.4Z" transform="translate(-0.016 4.059)" fill="#fff"/>
          <g id="Group_35" data-name="Group 35" transform="translate(0.018)">
            <path id="Shape-11" data-name="Shape" d="M1.132,48.732a1.094,1.094,0,1,1-.012-2.187h.012a1.094,1.094,0,1,1,0,2.187Z" transform="translate(-0.032 4.354)" fill="#428dff"/>
            <path id="Shape-12" data-name="Shape" d="M12.183,65.612H38.056a11.929,11.929,0,0,0,11.658-9.025c2.447-10.031-3.733-22.636-10.736-31.669a3.738,3.738,0,0,0,2.481-2.942,5.789,5.789,0,0,1,4.516,3.582A1.094,1.094,0,1,0,48,24.743a7.91,7.91,0,0,0-5.87-4.853A8.42,8.42,0,0,0,45.9,13.122a1.094,1.094,0,1,0-2.187,0,6.581,6.581,0,0,1-3.418,5.406A3.8,3.8,0,0,0,37.7,17.5h-.741l3.381-5.308a4.374,4.374,0,0,0-3.7-6.721h-1.27A4.368,4.368,0,0,0,31.134,0H19.1a4.368,4.368,0,0,0-4.231,5.468H13.6a4.374,4.374,0,0,0-3.7,6.722l3.38,5.307h-.741a3.818,3.818,0,0,0-1.261,7.424,66.946,66.946,0,0,0-6.325,9.7,49.417,49.417,0,0,0-2.8,6.215,34.917,34.917,0,0,0-1.8,6.627,1.057,1.057,0,0,0,.919,1.262,1.138,1.138,0,0,0,1.244-.9,32.616,32.616,0,0,1,1.694-6.233A47,47,0,0,1,6.9,35.638a66.021,66.021,0,0,1,6.98-10.487h3.589a1.094,1.094,0,1,0,0-2.187H12.544a1.64,1.64,0,0,1,0-3.281H37.7a1.64,1.64,0,1,1,0,3.281H24.026a1.094,1.094,0,1,0,0,2.187H36.37C43.4,33.832,49.955,46.38,47.59,56.067a9.748,9.748,0,0,1-9.535,7.358H12.183a9.746,9.746,0,0,1-9.535-7.358,1.094,1.094,0,0,0-2.124.523,11.929,11.929,0,0,0,11.658,9.023Zm3.7-48.115-4.128-6.48A2.187,2.187,0,0,1,13.6,7.655h2.129l2.909,6.982a1.094,1.094,0,0,0,2.019-.842l-3.575-8.58A2.187,2.187,0,0,1,19.1,2.187H31.134a2.187,2.187,0,0,1,2.019,3.028l-3.575,8.58a1.094,1.094,0,1,0,2.019.842l2.909-6.982h2.129a2.187,2.187,0,0,1,1.859,3.36L34.361,17.5Z" transform="translate(-0.004 0)" fill="#4e7aef"/>
            <path id="Shape-13" data-name="Shape" d="M12.468,51.029a1.094,1.094,0,0,0,1.094-1.094V41.187h3.281a1.094,1.094,0,1,0,0-2.187H8.094a1.094,1.094,0,1,0,0,2.187h3.281v8.748A1.094,1.094,0,0,0,12.468,51.029Z" transform="translate(0.619 3.648)" fill="#4e7aef"/>
            <path id="Shape-14" data-name="Shape" d="M30.487,50.845a1.094,1.094,0,0,0,1.517-.3l2.371-3.559,2.371,3.556a1.094,1.094,0,0,0,1.82-1.214l-2.878-4.311L38.562,40.7a1.094,1.094,0,0,0-1.82-1.214l-2.369,3.559L32,39.49a1.094,1.094,0,1,0-1.82,1.214l2.878,4.311-2.876,4.314a1.094,1.094,0,0,0,.3,1.517Z" transform="translate(2.77 3.648)" fill="#4e7aef"/>
            <path id="Shape-15" data-name="Shape" d="M20.093,50.379l1.169-2.631h4.411l1.169,2.631a1.094,1.094,0,0,0,2-.888L27.4,46.244l-.014-.032-2.916-6.561a1.094,1.094,0,0,0-2,0l-2.916,6.561-.014.032-1.443,3.247a1.094,1.094,0,0,0,2,.888Zm3.375-7.594L24.7,45.561H22.234Z" transform="translate(1.648 3.648)" fill="#4e7aef"/>
          </g>
        </g>
      </g>
    </g>
  </g>
</svg>
