<svg xmlns="http://www.w3.org/2000/svg" width="24.916" height="24.916" viewBox="0 0 24.916 24.916">
  <path id="Path_133" data-name="Path 133" d="M15.43,13.914c-.472.193-.773.931-1.078,1.308a.452.452,0,0,1-.584.127,8.221,8.221,0,0,1-4.1-3.515.5.5,0,0,1,.064-.687,2.779,2.779,0,0,0,.746-1.21C10.65,8.9,9.3,5.689,7.508,7.145c-5.145,4.192,8.582,15.312,11.06,9.3C19.269,14.738,16.211,13.594,15.43,13.914ZM12.455,22.74a10.272,10.272,0,0,1-5.177-1.4,1.094,1.094,0,0,0-.837-.11l-3.406.935,1.186-2.614a1.087,1.087,0,0,0-.108-1.086,10.28,10.28,0,1,1,8.342,4.275Zm0-22.74A12.456,12.456,0,0,0,1.987,19.21L.095,23.378a1.088,1.088,0,0,0,.991,1.538c.7,0,4.528-1.2,5.5-1.47A12.457,12.457,0,1,0,12.455,0Z" transform="translate(0.003)" fill="#fff" fill-rule="evenodd"/>
</svg>
